<?xml version="1.0" encoding="iso-8859-1"?>
<!-- Generator: Adobe Illustrator 19.0.0, SVG Export Plug-In . SVG Version: 6.00 Build 0)  -->
<svg version="1.1" id="Layer_1" xmlns="http://www.w3.org/2000/svg" xmlns:xlink="http://www.w3.org/1999/xlink" x="0px" y="0px"
	 viewBox="0 0 496 496" style="enable-background:new 0 0 496 496;" xml:space="preserve">
<g>
	<g>
		<path d="M352,208v112h144V208h-64v-56H256v-40h64V0H176v112h64v40H64v56H0v112h144V208H80v-40h160v44l-69.336,52L240,316v68H120
			v112h248V384H256v-68l69.336-52L256,212v-44h160v40H352z M128,224v80H16v-80H128z M352,400v80H136v-80H352z M298.664,264L248,302
			l-50.664-38L248,226L298.664,264z M192,96V16h112v80H192z M480,224v80H368v-80H480z"/>
	</g>
</g>
<g>
</g>
<g>
</g>
<g>
</g>
<g>
</g>
<g>
</g>
<g>
</g>
<g>
</g>
<g>
</g>
<g>
</g>
<g>
</g>
<g>
</g>
<g>
</g>
<g>
</g>
<g>
</g>
<g>
</g>
</svg>
