<?xml version="1.0" encoding="iso-8859-1"?>
<!-- Generator: Adobe Illustrator 19.0.0, SVG Export Plug-In . SVG Version: 6.00 Build 0)  -->
<svg version="1.1" id="Capa_1" xmlns="http://www.w3.org/2000/svg" xmlns:xlink="http://www.w3.org/1999/xlink" x="0px" y="0px"
	 viewBox="0 0 502.664 502.664" style="enable-background:new 0 0 502.664 502.664;" xml:space="preserve">
<g>
	<g>
		<g>
			<polygon points="0,253.209 135.81,334.077 271.706,253.209 135.81,172.404 			"/>
			<polygon points="126.987,106.765 126.987,142.249 109.256,142.249 134.192,167.206 159.041,142.249 141.396,142.249 
				141.396,106.765 			"/>
			<polygon points="126.987,340.764 126.987,376.248 109.256,376.248 134.192,401.141 159.041,376.248 141.396,376.248 
				141.396,340.764 			"/>
			<polygon points="327.444,247.406 276.02,247.428 276.02,261.923 327.444,261.88 327.444,279.633 352.359,254.654 327.444,229.74 
							"/>
			<polygon points="30.372,489.517 184.991,489.517 224.228,412.272 69.544,412.272 			"/>
			<path d="M459.285,209.312h-57.378c-23.9,0-43.4,19.457-43.4,43.4c0,24.008,19.478,43.465,43.4,43.465h57.378
				c23.944,0,43.379-19.457,43.379-43.465C502.664,228.769,483.229,209.334,459.285,209.312z"/>
			<path d="M93.294,99.991h89.13c23.987,0,43.487-19.478,43.487-43.4c0-23.987-19.5-43.444-43.487-43.444h-89.13
				c-23.965,0-43.444,19.457-43.465,43.444C49.829,80.535,69.328,99.991,93.294,99.991z"/>
		</g>
	</g>
	<g>
	</g>
	<g>
	</g>
	<g>
	</g>
	<g>
	</g>
	<g>
	</g>
	<g>
	</g>
	<g>
	</g>
	<g>
	</g>
	<g>
	</g>
	<g>
	</g>
	<g>
	</g>
	<g>
	</g>
	<g>
	</g>
	<g>
	</g>
	<g>
	</g>
</g>
<g>
</g>
<g>
</g>
<g>
</g>
<g>
</g>
<g>
</g>
<g>
</g>
<g>
</g>
<g>
</g>
<g>
</g>
<g>
</g>
<g>
</g>
<g>
</g>
<g>
</g>
<g>
</g>
<g>
</g>
</svg>
