<?xml version="1.0" standalone="no"?><!DOCTYPE svg PUBLIC "-//W3C//DTD SVG 1.1//EN" "http://www.w3.org/Graphics/SVG/1.1/DTD/svg11.dtd"><svg class="icon" height="512" viewBox="0 0 1024 1024" version="1.1" xmlns="http://www.w3.org/2000/svg"><path d="M608 64H480c-53.013 0-96 42.987-96 96s42.987 96 96 96h128c53.013 0 96-42.987 96-96s-42.987-96-96-96z m0 128H480c-17.6 0-32-14.4-32-32s14.4-32 32-32h128c17.6 0 32 14.4 32 32s-14.4 32-32 32z m0 192H480c-53.013 0-96 42.987-96 96s42.987 96 96 96h128c53.013 0 96-42.987 96-96s-42.987-96-96-96z m0 128H480c-17.6 0-32-14.4-32-32s14.4-32 32-32h128c17.6 0 32 14.4 32 32s-14.4 32-32 32z m0 192H480c-53.013 0-96 42.987-96 96s42.987 96 96 96h128c53.013 0 96-42.987 96-96s-42.987-96-96-96z m0 128H480c-17.6 0-32-14.4-32-32s14.4-32 32-32h128c17.6 0 32 14.4 32 32s-14.4 32-32 32z m-352-64c-34.24 0-66.347-13.333-90.56-37.44C141.333 706.347 128 674.24 128 640s13.333-66.347 37.44-90.56C189.653 525.227 221.76 512 256 512h64v-64h-64c-106.027 0-192 85.973-192 192s85.973 192 192 192v64l96-96-96-96v64z m576-640h-64v64h64c34.24 0 66.347 13.333 90.56 37.44C946.773 253.653 960 285.76 960 320s-13.333 66.347-37.44 90.56C898.347 434.667 866.24 448 832 448v-64l-96 96 96 96v-64c106.027 0 192-85.973 192-192s-85.973-192-192-192z" fill="#333333" /></svg>